<?xml version="1.0" standalone="yes"?>

<svg version="1.1" viewBox="0.0 0.0 960.0 720.0" fill="none" stroke="none" stroke-linecap="square" stroke-miterlimit="10" xmlns="http://www.w3.org/2000/svg" xmlns:xlink="http://www.w3.org/1999/xlink"><clipPath id="p.0"><path d="m0 0l960.0 0l0 720.0l-960.0 0l0 -720.0z" clip-rule="nonzero"></path></clipPath><g clip-path="url(#p.0)"><path fill="#000000" fill-opacity="0.0" d="m0 0l960.0 0l0 720.0l-960.0 0z" fill-rule="nonzero"></path><path fill="#000000" fill-opacity="0.0" d="m117.70079 206.69292l724.5984 0l0 306.61414l-724.5984 0z" fill-rule="nonzero"></path><path fill="#000000" d="m202.68837 377.30228q0 -29.203125 8.734375 -49.015625q6.515625 -14.609375 17.78125 -26.203125q11.28125 -11.609375 24.71875 -17.21875q17.85936 -7.5625 41.187485 -7.5625q42.25 0 67.59375 26.21875q25.359375 26.203125 25.359375 72.875q0 46.28125 -25.15625 72.421875q-25.15625 26.140625 -67.265625 26.140625q-42.64061 0 -67.79686 -26.015625q-25.15625 -26.015625 -25.15625 -71.640625zm39.75 -1.296875q0 32.453125 14.999985 49.21875q15.0 16.75 38.0625 16.75q23.078125 0 37.875 -16.625q14.796875 -16.625 14.796875 -49.875q0 -32.84375 -14.40625 -49.015625q-14.40625 -16.171875 -38.265625 -16.171875q-23.859375 0 -38.46875 16.375q-14.593735 16.359375 -14.593735 49.34375zm175.8669 95.6875l0 -191.125l37.546875 0l78.234406 127.640625l0 -127.640625l35.84375 0l0 191.125l-38.71875 0l-77.046906 -124.640625l0 124.640625l-35.859375 0zm192.17996 0l0 -191.125l141.71875 0l0 32.328125l-103.125 0l0 42.375l95.953125 0l0 32.203125l-95.953125 0l0 52.015625l106.78125 0l0 32.203125l-145.375 0z" fill-rule="nonzero"></path></g></svg>

